<?xml version="1.0" standalone="no"?>
<!DOCTYPE svg PUBLIC "-//W3C//DTD SVG 20010904//EN"
 "http://www.w3.org/TR/2001/REC-SVG-20010904/DTD/svg10.dtd">
<svg version="1.0" xmlns="http://www.w3.org/2000/svg"
 width="622.000000pt" height="592.000000pt" viewBox="0 0 622.000000 592.000000"
 preserveAspectRatio="xMidYMid meet">

<g transform="translate(0.000000,592.000000) scale(0.100000,-0.100000)"
fill="#000000" stroke="none">
<path d="M3000 5014 c-407 -26 -770 -159 -1093 -402 -544 -409 -845 -1097
-777 -1773 73 -717 518 -1332 1176 -1627 155 -69 363 -128 544 -153 123 -17
424 -14 547 5 219 33 408 93 604 192 579 290 976 839 1076 1487 23 151 23 423
0 574 -123 801 -701 1441 -1479 1638 -175 45 -427 69 -598 59z m350 -155 c105
-12 227 -40 346 -79 535 -175 986 -628 1164 -1168 215 -656 57 -1361 -417
-1853 -264 -273 -565 -446 -923 -528 -138 -32 -245 -43 -415 -43 -418 1 -797
130 -1126 384 -551 425 -819 1144 -680 1819 169 816 848 1418 1670 1479 116 8
249 5 381 -11z"/>
<path d="M2917 4008 c-19 -49 -692 -1801 -703 -1830 l-13 -38 132 0 132 0 101
283 102 282 393 0 393 0 74 -190 c40 -104 89 -232 108 -282 l36 -93 140 0
c129 0 140 1 134 18 -4 9 -176 432 -383 940 l-377 922 -132 0 c-96 0 -133 -3
-137 -12z m168 -308 c15 -47 86 -241 158 -433 71 -191 128 -350 125 -352 -3
-3 -144 -4 -315 -3 l-310 3 122 328 c67 180 135 379 151 442 15 63 31 111 35
107 4 -4 19 -45 34 -92z"/>
</g>
</svg>
